:SAMPLES-PER-SECOND 30
:FRAME-RANGE 1-1390
:FULLY-SPECIFIED
:DEGREES
435
root  -2.20782 34.5095 44.2181 -11.6943 -29.3298 7.22239
RightUpLeg  -79.1631 -18.2295 61.4133
RightLeg  126.981 9.27646 -10.677
RightFoot  -34.6897 -0.141504 0.460243
RightToes  6.35937e-011 1.2921e-014 -6.02303e-014
Spine  18.1951 -2.37261 2.92816
Spine1  -2.123 0.27319 -3.54527
HEad  13.1412 -25.5099 5.57233
LeftShoulder1  2.99759 -8.61083 -18.8769
LeftArm  40.7052 -22.7082 -66.1058
LeftForeArm  29.4662 -2.44932 -18.1438
LeftHand  0.00281444 6.90202 2.8214
RightShoulder  2.29585 5.90238 18.5157
RightArm  5.47002 35.1432 92.2784
RightForeArm  120.877 -4.02797 9.80036
RightHand  2.3142 -20.0787 -18.2399
LeftUpLeg  -23.4626 -16.8802 -14.4188
LeftLeg  52.8467 3.93032 6.04915
LeftFoot  -18.4178 0.267049 2.52993
LeftToes  4.52251e-011 4.07896e-011 -5.42348e-012
436
root  -3.0177 34.9369 44.8995 -10.5607 -30.7365 6.37172
RightUpLeg  -80.2293 -17.8263 63.2436
RightLeg  124.987 7.26594 -8.91551
RightFoot  -34.0161 -0.24036 -0.0424704
RightToes  6.35937e-011 1.2921e-014 -6.02303e-014
Spine  17.2293 -2.29855 2.02054
Spine1  -2.27431 -0.012026 -2.69754
HEad  12.6499 -30.0414 8.00287
LeftShoulder1  2.9931 -8.81983 -18.3679
LeftArm  45.1534 -22.1298 -65.2505
LeftForeArm  25.9828 -3.65336 -18.1403
LeftHand  -0.000774027 6.82775 2.66408
RightShoulder  2.34443 6.0127 18.7626
RightArm  4.7716 34.9869 92.0137
RightForeArm  120.73 -3.98762 9.50199
RightHand  2.32266 -20.1609 -18.2041
LeftUpLeg  -21.6794 -16.1251 -12.956
LeftLeg  51.5949 4.27632 6.24886
LeftFoot  -19.5842 0.258489 1.95538
LeftToes  4.52251e-011 4.07896e-011 -5.42348e-012
437
root  -3.70946 35.728 45.684 -9.44775 -31.8063 5.87462
RightUpLeg  -81.6039 -17.3576 63.3896
RightLeg  124.097 5.90896 -7.40518
RightFoot  -34.7017 0.0181665 1.23294
RightToes  6.35937e-011 1.2921e-014 -6.02303e-014
Spine  16.1898 -2.49189 1.69291
Spine1  -2.68766 -0.046913 -2.84118
HEad  12.4525 -34.6441 10.8555
LeftShoulder1  3.02789 -8.93458 -18.4248
LeftArm  45.1952 -22.7654 -64.8477
LeftForeArm  27.3562 -3.68613 -18.0795
LeftHand  0.00178019 7.07305 2.54773
RightShoulder  2.32881 5.94579 18.7758
RightArm  4.48322 34.858 92.0179
RightForeArm  120.92 -3.95612 9.35651
RightHand  2.33297 -20.5268 -17.8528
LeftUpLeg  -18.5764 -16.1118 -12.239
LeftLeg  47.5101 5.23688 6.5401
LeftFoot  -19.0387 0.206995 1.37825
LeftToes  4.52251e-011 4.07896e-011 -5.42348e-012
438
root  -4.53395 36.8904 46.2129 -7.82432 -33.3561 4.07782
RightUpLeg  -82.2344 -16.2789 63.9333
RightLeg  122.696 6.21357 -8.24074
RightFoot  -34.4748 0.0153023 1.22357
RightToes  6.35937e-011 1.2921e-014 -6.02303e-014
Spine  15.5912 -2.53338 1.97671
Spine1  -2.6207 -0.090887 -3.05518
HEad  13.0668 -37.9843 12.916
LeftShoulder1  3.09816 -9.20667 -18.4496
LeftArm  38.979 -23.3791 -64.5494
LeftForeArm  33.5267 -1.90485 -18.0192
LeftHand  0.0169072 7.37429 3.08985
RightShoulder  2.29468 5.93086 18.419
RightArm  5.01469 35.0056 92.4201
RightForeArm  119.545 -4.05491 9.5884
RightHand  2.24646 -20.5176 -17.2407
LeftUpLeg  -14.6807 -16.1111 -9.71383
LeftLeg  41.4452 6.07644 6.12302
LeftFoot  -16.5197 0.0944626 -0.102438
LeftToes  4.52251e-011 4.07896e-011 -5.42348e-012
439
root  -5.23616 37.9865 46.7575 -6.13345 -33.9652 2.33448
RightUpLeg  -83.5772 -15.2035 63.3702
RightLeg  123.115 5.94111 -7.73213
RightFoot  -35.1227 0.107322 1.64806
RightToes  6.35937e-011 1.2921e-014 -6.02303e-014
Spine  15.2318 -2.89202 1.30294
Spine1  -2.9391 -0.590527 -1.85116
HEad  14.638 -39.7385 13.3607
LeftShoulder1  3.16057 -9.52092 -18.3188
LeftArm  38.6322 -23.29 -64.6826
LeftForeArm  32.5233 -1.73429 -18.0676
LeftHand  0.00866569 7.15602 2.87836
RightShoulder  2.24933 5.89525 17.9875
RightArm  6.26926 35.4108 92.7433
RightForeArm  117.123 -4.26653 10.2324
RightHand  2.11662 -20.3315 -16.5006
LeftUpLeg  -12.8986 -18.1353 -7.6864
LeftLeg  38.59 6.88148 6.24519
LeftFoot  -11.0769 0.0751849 -3.80937
LeftToes  4.52251e-011 4.07896e-011 -5.42348e-012
440
root  -5.9235 38.9572 47.0009 -4.55662 -34.8938 0.77533
RightUpLeg  -84.2799 -13.7035 62.9208
RightLeg  122.975 6.46933 -8.5088
RightFoot  -35.1647 -0.0184774 1.05
RightToes  6.35937e-011 1.2921e-014 -6.02303e-014
Spine  15.8709 -2.71415 1.08668
Spine1  -3.16295 -0.668971 -1.49748
HEad  15.9641 -41.4256 12.9743
LeftShoulder1  3.16747 -9.71012 -17.9878
LeftArm  36.2573 -23.3355 -65.4227
LeftForeArm  33.3325 -0.939665 -18.0524
LeftHand  0.00637698 7.13254 2.76699
RightShoulder  2.21851 5.94863 17.4723
RightArm  7.11758 35.81 92.8302
RightForeArm  114.495 -4.44815 10.6197
RightHand  1.92686 -20.2542 -15.1876
LeftUpLeg  -14.5498 -20.4279 -5.48233
LeftLeg  40.2141 7.75217 7.36239
LeftFoot  -2.12416 0.549645 -6.65682
LeftToes  4.52251e-011 4.07896e-011 -5.42348e-012
441
root  -6.51328 39.5047 47.3134 -3.20112 -36.977 -0.977938
RightUpLeg  -83.5392 -12.9098 62.8299
RightLeg  123.434 6.48057 -8.37699
RightFoot  -35.0713 0.0433766 1.34559
RightToes  6.35937e-011 1.2921e-014 -6.02303e-014
Spine  16.6799 -2.20728 2.53028
Spine1  -2.64559 0.109322 -2.55829
HEad  16.4249 -42.2435 12.104
LeftShoulder1  3.12728 -9.59252 -17.891
LeftArm  36.885 -23.5556 -66.1388
LeftForeArm  33.1978 -0.976361 -18.0579
LeftHand  0.00578667 6.92945 2.98882
RightShoulder  2.22413 6.2086 16.8257
RightArm  7.33303 36.6009 93.0846
RightForeArm  112.784 -4.50665 10.4849
RightHand  1.56155 -19.7888 -12.8754
LeftUpLeg  -18.2561 -21.5946 -3.07707
LeftLeg  44.596 3.02252 3.61052
LeftFoot  2.65857 -0.0780778 0.504815
LeftToes  4.52251e-011 4.07896e-011 -5.42348e-012
442
root  -7.0981 39.7775 47.6594 -2.22527 -39.7209 -1.70841
RightUpLeg  -81.8671 -12.783 61.9093
RightLeg  124.121 6.12975 -7.69335
RightFoot  -34.8482 0.105145 1.6481
RightToes  6.35937e-011 1.2921e-014 -6.02303e-014
Spine  17.6631 -1.65171 2.94229
Spine1  -2.45747 0.968772 -4.12199
HEad  16.8019 -42.4833 12.0822
LeftShoulder1  2.96494 -9.00986 -17.7073
LeftArm  38.3076 -22.7778 -66.0833
LeftForeArm  31.8247 -1.11563 -18.1134
LeftHand  -0.00602315 6.54897 2.64167
RightShoulder  2.29519 6.56376 16.698
RightArm  6.7213 36.8983 93.41
RightForeArm  112.968 -4.41676 9.96424
RightHand  1.33993 -19.3423 -11.5194
LeftUpLeg  -20.7503 -23.7032 -0.600204
LeftLeg  43.438 -2.64763 -2.26798
LeftFoot  -4.17537 0.306134 -4.48811
LeftToes  4.52251e-011 4.07896e-011 -5.42348e-012
